<svg width="22" height="22" viewBox="0 0 22 22" fill="none" xmlns="http://www.w3.org/2000/svg">
<path d="M21.5898 7.96769L11.6544 0.225064C11.2705 -0.0750213 10.7299 -0.0750213 10.346 0.225064L0.410558 7.96769C0.0515616 8.24699 -0.0898157 8.72345 0.0577998 9.15314C0.206111 9.58317 0.610151 9.87182 1.06479 9.87182H2.83897V20.9355C2.83897 21.5235 3.31578 22 3.90347 22H8.23982C8.82751 22 9.30433 21.5235 9.30433 20.9355V17.6356C9.30433 16.7003 10.0653 15.9394 11.0002 15.9394C11.4527 15.9394 11.8783 16.1161 12.2047 16.4422C12.5214 16.7544 12.6961 17.1785 12.6961 17.6356V20.9355C12.6961 21.5235 13.1729 22 13.7606 22H18.0969C18.6846 22 19.1614 21.5235 19.1614 20.9355V9.87182H20.9356C21.3902 9.87182 21.7943 9.58317 21.9426 9.15314C22.0902 8.72346 21.9488 8.24699 21.5898 7.96769ZM17.0324 8.80731V19.871H14.8251V17.6356C14.8251 16.6037 14.4252 15.6414 13.7044 14.9314C12.9816 14.2085 12.021 13.8104 11.0002 13.8104C8.89128 13.8104 7.17531 15.5263 7.17531 17.6356V19.871H4.96799V8.80731C4.96799 8.29759 4.60969 7.87137 4.13149 7.76707L11.0002 2.41437L17.8689 7.76706C17.3907 7.87136 17.0324 8.29758 17.0324 8.80731Z" fill="#25BAFB"/>
</svg>
