<svg width="50" height="50" viewBox="0 0 50 50" fill="none" xmlns="http://www.w3.org/2000/svg">
<g id="icon_friends">
<g id="group 1" clip-path="url(#clip0_1_69)">
<g id="Group 20">
<path id="Vector" d="M37 22.6C34.8938 22.5994 32.8244 23.1531 31 24.2056C30.7171 24.3578 30.4676 24.5653 30.2664 24.8158C30.0652 25.0662 29.9163 25.3545 29.8286 25.6636C29.7408 25.9726 29.716 26.2961 29.7556 26.6149C29.7952 26.9338 29.8985 27.2414 30.0592 27.5196C30.2199 27.7977 30.4348 28.0408 30.6912 28.2344C30.9476 28.428 31.2402 28.5681 31.5518 28.6465C31.8634 28.7249 32.1875 28.7399 32.505 28.6907C32.8224 28.6415 33.1268 28.529 33.4 28.36C34.4949 27.7279 35.7369 27.3952 37.0012 27.3954C38.2654 27.3956 39.5073 27.7287 40.602 28.3611C41.6967 28.9936 42.6055 29.9032 43.2371 30.9984C43.8687 32.0936 44.2008 33.3357 44.2 34.6V37H39.4C38.7635 37 38.153 37.2528 37.7029 37.7029C37.2529 38.153 37 38.7635 37 39.4C37 40.0365 37.2529 40.647 37.7029 41.0971C38.153 41.5471 38.7635 41.8 39.4 41.8H46.6C47.2365 41.8 47.847 41.5471 48.2971 41.0971C48.7471 40.647 49 40.0365 49 39.4V34.6C48.9962 31.4186 47.7307 28.3685 45.4811 26.1189C43.2315 23.8693 40.1814 22.6038 37 22.6ZM37 20.2C38.9096 20.2 40.7409 19.4414 42.0912 18.0912C43.4414 16.7409 44.2 14.9096 44.2 13V10.6C44.2 8.69044 43.4414 6.85909 42.0912 5.50883C40.7409 4.15856 38.9096 3.39999 37 3.39999C35.0904 3.39999 33.2591 4.15856 31.9088 5.50883C30.5586 6.85909 29.8 8.69044 29.8 10.6V13C29.8 14.9096 30.5586 16.7409 31.9088 18.0912C33.2591 19.4414 35.0904 20.2 37 20.2ZM34.6 10.6C34.6 9.96347 34.8529 9.35303 35.3029 8.90294C35.753 8.45285 36.3635 8.19999 37 8.19999C37.6365 8.19999 38.247 8.45285 38.6971 8.90294C39.1471 9.35303 39.4 9.96347 39.4 10.6V13C39.4 13.6365 39.1471 14.247 38.6971 14.6971C38.247 15.1471 37.6365 15.4 37 15.4C36.3635 15.4 35.753 15.1471 35.3029 14.6971C34.8529 14.247 34.6 13.6365 34.6 13V10.6Z" fill="#60DDA1"/>
<path id="Vector_2" d="M17.8 25C13.3459 25.0051 9.07573 26.7767 5.92622 29.9262C2.77671 33.0757 1.00508 37.3459 1 41.8V46.6C1 47.2365 1.25286 47.847 1.70294 48.2971C2.15303 48.7471 2.76348 49 3.4 49H32.2C32.8365 49 33.447 48.7471 33.8971 48.2971C34.3471 47.847 34.6 47.2365 34.6 46.6V41.8C34.5949 37.3459 32.8233 33.0757 29.6738 29.9262C26.5243 26.7767 22.2541 25.0051 17.8 25ZM29.8 44.2H5.8V41.8C5.8 38.6174 7.06428 35.5652 9.31472 33.3147C11.5652 31.0643 14.6174 29.8 17.8 29.8C20.9826 29.8 24.0348 31.0643 26.2853 33.3147C28.5357 35.5652 29.8 38.6174 29.8 41.8V44.2ZM17.8 22.6C20.3461 22.6 22.7879 21.5886 24.5882 19.7882C26.3886 17.9879 27.4 15.5461 27.4 13V10.6C27.4 8.05392 26.3886 5.61212 24.5882 3.81178C22.7879 2.01143 20.3461 1 17.8 1C15.2539 1 12.8121 2.01143 11.0118 3.81178C9.21142 5.61212 8.2 8.05392 8.2 10.6V13C8.2 15.5461 9.21142 17.9879 11.0118 19.7882C12.8121 21.5886 15.2539 22.6 17.8 22.6ZM13 10.6C13 9.32696 13.5057 8.10606 14.4059 7.20589C15.3061 6.30571 16.527 5.8 17.8 5.8C19.073 5.8 20.2939 6.30571 21.1941 7.20589C22.0943 8.10606 22.6 9.32696 22.6 10.6V13C22.6 14.273 22.0943 15.4939 21.1941 16.3941C20.2939 17.2943 19.073 17.8 17.8 17.8C16.527 17.8 15.3061 17.2943 14.4059 16.3941C13.5057 15.4939 13 14.273 13 13V10.6Z" fill="#25BAFB"/>
</g>
</g>
</g>
<defs>
<clipPath id="clip0_1_69">
<rect width="48" height="48" fill="white" transform="translate(1 1)"/>
</clipPath>
</defs>
</svg>
