<svg width="22" height="15" viewBox="0 0 22 15" fill="none" xmlns="http://www.w3.org/2000/svg">
<path d="M1.06452 2.129H20.9355C21.5232 2.129 22 1.65253 22 1.06449C22 0.47644 21.5232 -3.05176e-05 20.9355 -3.05176e-05H1.06452C0.47647 -3.05176e-05 0 0.47644 0 1.06449C0 1.65253 0.47647 2.129 1.06452 2.129ZM20.9355 6.41236H1.06452C0.47647 6.41236 0 6.88883 0 7.47688C0 8.06492 0.47647 8.54139 1.06452 8.54139H20.9355C21.5232 8.54139 22 8.06492 22 7.47688C22 6.88883 21.5232 6.41236 20.9355 6.41236ZM20.9355 12.8248H1.06452C0.47647 12.8248 0 13.3012 0 13.8893C0 14.4773 0.47647 14.9538 1.06452 14.9538H20.9355C21.5232 14.9538 22 14.4773 22 13.8893C22 13.3012 21.5232 12.8248 20.9355 12.8248Z" fill="#979797"/>
</svg>
