<svg width="21" height="22" viewBox="0 0 21 22" fill="none" xmlns="http://www.w3.org/2000/svg">
<path d="M1.06452 17.9173H6.57457V18.3629C6.57457 20.3686 8.20599 22 10.2117 22C12.2173 22 13.8488 20.3686 13.8488 18.3629V17.9173H19.3588C19.9469 17.9173 20.4233 17.4408 20.4233 16.8528C20.4233 16.2647 19.9469 15.7882 19.3588 15.7882H18.479V8.26732C18.479 3.70882 14.7702 0 10.2117 0C5.65316 0 1.94434 3.70882 1.94434 8.26732V15.7882H1.06452C0.47647 15.7882 0 16.2647 0 16.8528C0 17.4408 0.47647 17.9173 1.06452 17.9173ZM11.7197 18.3629C11.7197 19.1946 11.0433 19.871 10.2117 19.871C9.38001 19.871 8.7036 19.1946 8.7036 18.3629V17.9173H11.7197V18.3629ZM4.07337 8.26732C4.07337 4.8825 6.82683 2.12903 10.2117 2.12903C13.5965 2.12903 16.35 4.8825 16.35 8.26732V15.7882H4.07337V8.26732Z" fill="white"/>
</svg>
