<svg width="22" height="22" viewBox="0 0 22 22" fill="none" xmlns="http://www.w3.org/2000/svg">
<path d="M20.9355 3.31067H16.8801V2.48387C16.8801 1.11441 15.7657 0 14.3963 0H7.60373C6.23427 0 5.11986 1.11441 5.11986 2.48387V3.31067H1.06452C0.47647 3.31067 0 3.78749 0 4.37519V4.37865L-1.14441e-05 19.5161C-1.14441e-05 20.8856 1.1144 22 2.48386 22H19.5161C20.8856 22 22 20.8856 22 19.5161L22 4.37865V4.37519C22 3.78748 21.5235 3.31067 20.9355 3.31067ZM13.9305 9.07882H8.06946C7.48141 9.07882 7.00494 9.55564 7.00494 10.1433V10.8468H5.98963C3.86095 10.8468 2.12903 9.11486 2.12903 6.98582V5.44317H19.871V6.98582C19.871 9.11486 18.139 10.8468 16.0104 10.8468H14.9951V10.1433C14.9951 9.55563 14.5186 9.07882 13.9305 9.07882ZM12.866 11.2079V12.6147H9.13397V11.2079H12.866ZM7.2489 2.48387C7.2489 2.28843 7.40795 2.12903 7.60374 2.12903H14.3963C14.5921 2.12903 14.7511 2.28843 14.7511 2.48387V3.31067H7.2489V2.48387ZM19.5161 19.871H2.48386C2.28807 19.871 2.12902 19.7116 2.12902 19.5161L2.12903 11.5583C3.17258 12.4409 4.51908 12.9758 5.98963 12.9758H7.00494V13.6792C7.00494 14.267 7.48141 14.7438 8.06946 14.7438H13.9305C14.5186 14.7438 14.9951 14.2669 14.9951 13.6792V12.9758H16.0104C17.4809 12.9758 18.8274 12.4409 19.871 11.5583L19.8709 19.5161C19.871 19.7116 19.7119 19.871 19.5161 19.871Z" fill="#979797"/>
</svg>
