<svg width="20" height="18" viewBox="0 0 20 18" fill="none" xmlns="http://www.w3.org/2000/svg">
<path d="M1.38564 7.18894H15.258L10.3967 2.36239C9.8543 1.82377 9.85222 0.948452 10.3921 0.407276C10.9319 -0.133968 11.8094 -0.135972 12.3518 0.402576L19.5923 7.59152L19.5935 7.59283C20.1345 8.13145 20.1363 9.00961 19.5936 9.55002L19.5924 9.55134L12.3519 16.7403C11.8096 17.2788 10.9321 17.2769 10.3922 16.7356C9.85236 16.1944 9.85443 15.3191 10.3969 14.7805L15.258 9.95392H1.38564C0.620325 9.95392 -4.57764e-05 9.33498 -4.57764e-05 8.57143C-4.57764e-05 7.80788 0.620325 7.18894 1.38564 7.18894Z" fill="#25BAFB"/>
</svg>
