<svg width="22" height="22" viewBox="0 0 22 22" fill="none" xmlns="http://www.w3.org/2000/svg">
<path d="M21.1222 5.61192L19.3362 0.700665C19.1831 0.279989 18.7832 0 18.3355 0H3.10097C2.65326 0 2.25337 0.279989 2.10021 0.700665L0.314932 5.61192C-0.204162 7.03752 -0.0759445 8.5137 0.65799 9.56089C0.937851 9.9606 1.29208 10.2763 1.69825 10.5107V18.8065C1.69825 20.5675 3.13077 22 4.8918 22H16.5446C18.3057 22 19.7382 20.5675 19.7382 18.8065V10.5108C20.1444 10.2763 20.4986 9.96061 20.7785 9.56089C21.5124 8.5137 21.6406 7.03752 21.1222 5.61192ZM19.1214 6.33963C19.4028 7.11306 19.3702 7.86086 19.0348 8.33975C18.7998 8.67553 18.4318 8.84567 17.9411 8.84567C16.5446 8.84567 15.0996 7.41662 14.9098 5.84756L14.459 2.12903H17.5898L19.1214 6.33963ZM12.1889 8.16926C11.9158 8.47801 11.4383 8.84567 10.7182 8.84567C9.99815 8.84567 9.52064 8.47801 9.24758 8.16926C8.77492 7.63631 8.5483 6.86391 8.64047 6.10399L9.12231 2.12903H12.3141L12.796 6.10399C12.8881 6.86391 12.6615 7.63631 12.1889 8.16926ZM2.31575 6.33963L3.84668 2.12903H6.97743L6.52669 5.84756C6.33679 7.41662 4.8918 8.84567 3.49532 8.84567C3.00464 8.84567 2.63663 8.67553 2.40169 8.33975C2.06625 7.86086 2.03368 7.11306 2.31575 6.33963ZM8.61968 19.871V18.3955C8.61968 17.2384 9.56084 16.2973 10.7182 16.2973C11.8756 16.2973 12.8168 17.2384 12.8168 18.3955V19.871H8.61968ZM16.5446 19.871H14.9458V18.3955C14.9458 16.0644 13.0496 14.1683 10.7182 14.1683C8.38682 14.1683 6.49065 16.0644 6.49065 18.3955V19.871H4.8918C4.30479 19.871 3.82728 19.3935 3.82728 18.8065V10.9562C5.13324 10.8514 6.38076 10.141 7.2844 9.094C7.39763 9.26336 7.51831 9.42792 7.65427 9.58134C8.45058 10.4799 9.53866 10.9747 10.7182 10.9747C11.8978 10.9747 12.9859 10.4799 13.7822 9.58134C13.9181 9.42792 14.0388 9.26336 14.152 9.094C15.0557 10.141 16.3032 10.8514 17.6092 10.9562V18.8065C17.6092 19.3935 17.1317 19.871 16.5446 19.871Z" fill="#979797"/>
</svg>
